<?xml version="1.0" standalone="no"?>
<!DOCTYPE svg PUBLIC "-//W3C//DTD SVG 20010904//EN"
 "http://www.w3.org/TR/2001/REC-SVG-20010904/DTD/svg10.dtd">
<svg version="1.0" xmlns="http://www.w3.org/2000/svg"
 width="700.000000pt" height="700.000000pt" viewBox="0 0 700.000000 700.000000"
 preserveAspectRatio="xMidYMid meet">
<metadata>
Created by potrace 1.11, written by Peter Selinger 2001-2013
</metadata>
<g transform="translate(0.000000,700.000000) scale(0.100000,-0.100000)"
fill="#000000" stroke="none">
<path d="M2835 5973 c1 -566 5 -1037 7 -1048 3 -11 9 -47 12 -80 12 -101 53
-285 93 -409 3 -10 -30 17 -73 60 -43 44 -99 95 -123 114 -24 19 -48 40 -55
46 -32 30 -227 159 -339 224 -170 99 -149 87 -486 287 -163 97 -462 275 -666
396 -203 121 -380 226 -392 233 -20 13 -23 10 -59 -54 -21 -37 -45 -78 -55
-92 -16 -24 -368 -618 -396 -670 -8 -14 -22 -37 -31 -52 -51 -81 -124 -210
-120 -213 2 -3 63 -39 136 -82 72 -43 220 -131 329 -196 109 -64 209 -124 223
-132 14 -8 102 -60 195 -116 94 -56 190 -113 215 -127 25 -13 52 -31 61 -38 8
-8 18 -14 21 -14 4 0 109 -61 235 -136 250 -150 381 -219 528 -279 76 -31 208
-72 260 -81 17 -2 44 -9 60 -13 23 -7 25 -9 9 -10 -35 -2 -184 -41 -269 -71
-160 -56 -261 -105 -510 -247 -110 -63 -207 -118 -215 -123 -8 -4 -49 -28 -90
-52 -41 -25 -149 -88 -240 -140 -380 -220 -945 -550 -948 -553 -5 -4 61 -119
70 -123 4 -2 8 -7 8 -12 0 -4 40 -75 89 -156 49 -82 175 -293 279 -469 105
-176 195 -325 199 -331 5 -8 89 36 263 138 140 83 269 158 285 168 17 9 109
64 205 120 96 57 200 117 230 135 30 17 160 93 288 169 128 75 254 149 280
163 189 105 373 238 501 362 46 44 85 81 86 81 2 0 -5 -28 -16 -63 -25 -84
-51 -214 -64 -318 -3 -30 -8 -70 -11 -89 -3 -19 -7 -495 -9 -1058 l-3 -1022
662 2 661 3 0 995 c-1 958 -4 1107 -32 1235 -2 11 -8 43 -13 70 -10 54 -53
219 -65 248 -12 29 1 20 57 -39 111 -117 332 -277 638 -460 91 -54 174 -105
185 -111 11 -7 32 -18 48 -25 15 -7 27 -16 27 -20 0 -4 5 -8 11 -8 6 0 31 -13
56 -30 24 -16 46 -30 49 -30 2 0 21 -11 42 -24 20 -13 172 -104 337 -201 165
-98 392 -233 505 -301 l205 -122 36 57 c19 31 38 63 42 71 4 8 17 32 29 52 56
92 529 900 533 911 4 10 -59 52 -235 154 -21 12 -68 40 -105 62 -37 23 -69 41
-71 41 -2 0 -28 15 -57 34 -29 19 -69 43 -88 54 -19 11 -135 80 -259 154 -124
73 -250 148 -280 166 -30 18 -62 37 -70 42 -90 58 -497 294 -570 331 -160 80
-335 143 -480 170 -35 7 -60 14 -55 15 202 51 383 117 550 202 101 52 201 107
220 122 6 4 30 19 55 32 25 14 96 55 158 92 62 36 132 77 155 90 23 13 56 32
74 42 18 10 105 62 195 114 90 52 171 100 180 105 9 6 47 28 85 49 37 22 147
85 243 141 96 57 191 111 210 122 128 72 150 86 150 91 0 17 -647 1081 -657
1082 -7 0 -56 -26 -110 -59 -95 -57 -828 -486 -928 -543 -27 -16 -66 -38 -85
-49 -19 -12 -78 -46 -130 -76 -52 -31 -107 -64 -122 -74 -15 -11 -30 -19 -33
-19 -3 0 -38 -20 -78 -43 -39 -24 -98 -59 -131 -78 -32 -19 -72 -42 -90 -53
-97 -57 -261 -183 -343 -262 -52 -50 -91 -84 -88 -75 26 68 70 273 81 381 3
30 8 71 11 90 2 19 6 495 7 1058 l3 1022 -662 0 -662 0 2 -1027z"/>
</g>
</svg>
